<svg id="visual" viewBox="0 0 900 600" width="900" height="600" xmlns="http://www.w3.org/2000/svg" xmlns:xlink="http://www.w3.org/1999/xlink" version="1.1"><rect x="0" y="0" width="900" height="600" fill="#ffffff"></rect><path d="M0 189L37.5 195.8C75 202.7 150 216.3 225 239.3C300 262.3 375 294.7 450 292.2C525 289.7 600 252.3 675 235.8C750 219.3 825 223.7 862.5 225.8L900 228L900 0L862.5 0C825 0 750 0 675 0C600 0 525 0 450 0C375 0 300 0 225 0C150 0 75 0 37.5 0L0 0Z" fill="#003399" stroke-linecap="round" stroke-linejoin="miter"></path></svg>