<svg id="visual" viewBox="0 0 900 600" width="900" height="600" xmlns="http://www.w3.org/2000/svg" xmlns:xlink="http://www.w3.org/1999/xlink" version="1.1"><rect x="0" y="0" width="900" height="200" fill="#ffffff"></rect>
<path d="M0 105L37.5 108.7C75 112.3 150 119.7 225 132.3C300 145 375 163 450 161.7C525 160.3 600 139.7 675 130.5C750 121.3 825 123.7 862.5 124.8L900 126L900 0L862.5 0C825 0 750 0 675 0C600 0 525 0 450 0C375 0 300 0 225 0C150 0 75 0 37.5 0L0 0Z" fill="#003399" stroke-linecap="round" stroke-linejoin="miter"></path></svg>